<svg class="svg-standalone-icon" width="900px" viewBox="217.04288236221072 115 115.91423527557862 115.9135530626487"><g data-paper-data="{&quot;isIcon&quot;:&quot;true&quot;,&quot;iconType&quot;:&quot;icon&quot;,&quot;rawIconId&quot;:&quot;4894730&quot;,&quot;selectedEffects&quot;:{&quot;container&quot;:&quot;&quot;,&quot;transformation&quot;:&quot;&quot;,&quot;pattern&quot;:&quot;&quot;},&quot;combineTerms&quot;:&quot;computation&quot;,&quot;isDetailed&quot;:false,&quot;fillRule&quot;:&quot;evenodd&quot;,&quot;bounds&quot;:{&quot;x&quot;:217.04288236221072,&quot;y&quot;:115,&quot;width&quot;:115.91423527557862,&quot;height&quot;:115.9135530626487},&quot;iconStyle&quot;:&quot;standalone&quot;,&quot;suitableAsStandaloneIcon&quot;:true}" fill-rule="evenodd"><g data-paper-data="{&quot;isPathIcon&quot;:true}"><path d="M304.69115,218.35622c22.12202,-14.48802 30.57303,-42.81805 20.00302,-67.05807l3.428,-1.498c11.29001,25.89803 2.26,56.16406 -21.37602,71.64108c-23.63503,15.47802 -54.98706,11.65701 -74.21308,-9.04401c-19.22702,-20.70102 -20.72402,-52.24906 -3.545,-74.67908c17.17902,-22.42902 48.02805,-29.20203 73.02408,-16.03202l-1.748,3.308c-23.39303,-12.33101 -52.26906,-5.99401 -68.35108,14.99802c-16.08202,20.99302 -14.68202,50.52306 3.314,69.90008c17.99602,19.37702 47.34205,22.95203 69.46408,8.46401z" fill="#f2cd00"></path><path d="M315.93517,122.48011c-1.162,0.018 -2.317,0.182 -3.438,0.486v1.579c0.006,0.664 -0.376,1.269 -0.977,1.55c-0.561,0.253 -1.1,0.553 -1.61,0.897c-0.568,0.364 -1.291,0.381 -1.875,0.044l-1.415,-0.79c-1.739,1.645 -2.988,3.74 -3.611,6.05101l2.453,1.37c-0.251,1.262 -0.251,2.561 0,3.823l-2.452,1.369c0.619,2.312 1.866,4.408 3.603,6.05601l1.422,-0.795c0.584,-0.336 1.307,-0.319 1.875,0.044c0.51,0.344 1.049,0.645 1.61,0.898c0.601,0.28 0.983,0.886 0.977,1.549v1.585c2.365,0.644 4.85901,0.642 7.22301,-0.006v-1.579c-0.006,-0.663 0.376,-1.269 0.977,-1.549c0.561,-0.253 1.1,-0.554 1.611,-0.898c0.567,-0.363 1.29,-0.38 1.875,-0.044l1.414,0.791c1.739,-1.646 2.989,-3.74 3.611,-6.05201l-2.453,-1.369c0.251,-1.262 0.251,-2.561 0,-3.823l2.452,-1.37c-0.619,-2.312 -1.866,-4.407 -3.602,-6.05501l-1.422,0.794c-0.585,0.337 -1.307,0.32 -1.875,-0.044c-0.511,-0.344 -1.05,-0.644 -1.611,-0.897c-0.601,-0.281 -0.983,-0.886 -0.977,-1.55v-1.585c-1.233,-0.333 -2.507,-0.494 -3.785,-0.48zM320.78717,135.57813c0,2.584 -2.095,4.67901 -4.67801,4.67901c-2.584,0 -4.67901,-2.095 -4.67901,-4.67901c0,-2.584 2.095,-4.67801 4.67901,-4.67801c2.583,0 4.67801,2.094 4.67801,4.67801z" fill="#f2cd00"></path><path d="M275.11812,129.96412c16.75902,-0.072 30.40303,13.45601 30.47503,30.21503v13.42901l6.77301,13.42901l-8.46601,1.678v8.39301c-0.024,5.58701 -4.57201,10.09601 -10.15801,10.07201h-11.85201v6.99401h-40.63505v-53.99506c0.073,-16.75902 13.71702,-30.28703 30.47603,-30.21503zM293.50914,163.97316l0.519,-8.66601c1.684,-0.293 3.005,-1.609 3.305,-3.292c0.299,-1.683 -0.487,-3.374 -1.967,-4.23c-1.481,-0.855 -3.338,-0.693 -4.64701,0.407l-8.03901,-6.21001c0.024,-0.151 0.04,-0.304 0.047,-0.458c0.003,-2.063 -1.539,-3.802 -3.588,-4.046c-2.049,-0.244 -3.956,1.084 -4.437,3.091l-16.01202,4.57301c-1.553,-1.534 -4.039,-1.568 -5.63301,-0.076c-1.593,1.49 -1.725,3.974 -0.298,5.62501l-3.094,6.35201c-0.117,-0.01 -0.23,-0.035 -0.351,-0.035c-2.25,0 -4.075,1.824 -4.075,4.075c0,2.25 1.825,4.074 4.075,4.074c0.17,-0.006 0.34,-0.023 0.508,-0.051l1.646,4.384c-1.363,1.232 -1.73,3.225 -0.895,4.86101c0.834,1.637 2.663,2.51 4.46,2.13l4.05,5.01001c-1.058,1.423 -1.074,3.367 -0.039,4.80701c1.034,1.441 2.881,2.047 4.56801,1.499c1.686,-0.547 2.825,-2.123 2.816,-3.896c-0.005,-0.679 -0.18,-1.345 -0.511,-1.937l5.43901,-5.47601c1.062,0.212 2.164,-0.01 3.06,-0.616c0.897,-0.606 1.514,-1.546 1.714,-2.609l11.87001,-3.957c0.745,1.624 2.462,2.571 4.233,2.335c1.77,-0.236 3.179,-1.6 3.473,-3.362c0.293,-1.762 -0.599,-3.509 -2.197,-4.306z" fill="#ff671f"></path><path d="M274.39412,153.05015l-0.026,0.074c0.507,-0.445 1.118,-0.756 1.776,-0.905l0.781,-7.01701c-0.925,-0.432 -1.655,-1.197 -2.043,-2.142l-15.04302,4.296c0.036,0.203 0.057,0.408 0.062,0.613z" fill="#f2cd00"></path><path d="M289.35514,150.39714c0.011,-0.046 0.03,-0.089 0.042,-0.135l-7.75401,-5.99001c-0.605,0.662 -1.412,1.104 -2.295,1.257l-0.768,6.90101c0.468,0.196 0.897,0.478 1.262,0.831z" fill="#f2cd00"></path><path d="M263.98311,157.00815c1.366,0 2.642,0.686 3.395,1.826l5.58501,-2.793c0.011,-0.289 0.053,-0.576 0.125,-0.857l-13.87402,-4.86401c-0.147,0.216 -0.313,0.418 -0.498,0.603l4.142,6.26201c0.365,-0.112 0.744,-0.172 1.125,-0.177z" fill="#f2cd00"></path><path d="M259.9501,160.66816c0.078,-0.779 0.381,-1.518 0.872,-2.128l-4.294,-6.49201c-0.557,0.112 -1.133,0.09 -1.68,-0.064l-2.921,5.99601c0.614,0.516 1.06,1.203 1.283,1.973c2.711,0.322 5.50401,0.629 6.74001,0.715z" fill="#f2cd00"></path><path d="M289.56514,152.88715l-8.54201,2.572c0.099,0.494 0.098,1.003 -0.003,1.496l8.81601,7.03901c0.39,-0.202 0.811,-0.339 1.245,-0.405l0.515,-8.60601c-0.912,-0.424 -1.635,-1.171 -2.031,-2.096z" fill="#f2cd00"></path><path d="M273.62712,158.44215l-5.58501,2.792c-0.033,0.903 -0.369,1.768 -0.953,2.457c1.332,1.96 2.619,3.825 3.483,5.03801c0.494,-0.206 1.025,-0.312 1.56,-0.312c0.024,0 0.046,0.007 0.07,0.007l2.43,-8.94501c-0.394,-0.283 -0.734,-0.634 -1.005,-1.037z" fill="#f2cd00"></path><path d="M277.02212,160.26816c-0.024,0 -0.046,-0.007 -0.069,-0.007l-2.43,8.94501c0.561,0.408 1.008,0.952 1.3,1.582l11.87101,-3.957c0.078,-0.385 0.212,-0.756 0.398,-1.102l-8.26101,-6.59601c-0.754,0.727 -1.761,1.134 -2.809,1.135z" fill="#f2cd00"></path><path d="M260.47611,163.12516l-0.047,0.002c-0.943,0 -2.912,-0.2 -7.27901,-0.719c-0.221,0.642 -0.599,1.218 -1.1,1.676l1.646,4.384c0.899,-0.155 1.824,0.037 2.587,0.537l4.489,-5.44101c-0.108,-0.14 -0.207,-0.286 -0.296,-0.439z" fill="#f2cd00"></path><path d="M268.09911,172.08417c0.059,-0.629 0.265,-1.236 0.601,-1.772c-1.048,-1.456 -2.553,-3.654 -3.675,-5.30601c-0.747,0.221 -1.545,0.2 -2.279,-0.06l0.032,0.026l-4.85001,5.87901c0.168,0.392 0.272,0.808 0.309,1.233z" fill="#f2cd00"></path><path d="M257.1841,175.25317c0.202,-0.221 0.38,-0.464 0.529,-0.724h10.91001c0.147,0.257 0.322,0.496 0.522,0.715l-4.98801,5.02101c-0.956,-0.5 -2.077,-0.576 -3.092,-0.211z" fill="#f2cd00"></path></g></g></svg>